<svg width="21" height="20" viewBox="0 0 21 20" fill="none" xmlns="http://www.w3.org/2000/svg">
<path d="M15.939 19.1723C16.8821 18.8187 17.7325 18.2293 18.4903 17.4041C19.2481 16.579 19.8459 15.5602 20.2838 14.3477C20.7048 13.1184 20.9153 11.7543 20.9153 10.2556C20.9153 8.5042 20.6206 6.92966 20.0312 5.53194C19.4418 4.13422 18.7513 2.96384 17.9598 2.0208C17.1515 1.07776 16.4358 0.404161 15.8127 0L13.2867 1.61664V2.37444C13.7583 2.7786 14.1708 3.368 14.5245 4.14264C14.8613 4.90044 15.1223 5.71718 15.3075 6.59286C15.4928 7.46854 15.5854 8.2937 15.5854 9.06834C15.5854 10.365 15.2907 11.5186 14.7013 12.529C14.1119 13.5394 13.5057 14.1877 12.8826 14.474V16.0401L15.939 19.1723ZM3.05646 19.1723C3.9995 18.8187 4.84992 18.2293 5.60772 17.4041C6.36552 16.579 6.96334 15.5602 7.40118 14.3477C7.82218 13.1184 8.03268 11.7543 8.03268 10.2556C8.03268 8.5042 7.73798 6.92966 7.14858 5.53194C6.55918 4.13422 5.86874 2.96384 5.07726 2.0208C4.26894 1.07776 3.55324 0.404161 2.93016 0L0.404161 1.61664V2.37444C0.875681 2.7786 1.28826 3.368 1.6419 4.14264C1.9787 4.90044 2.23972 5.71718 2.42496 6.59286C2.6102 7.46854 2.70282 8.2937 2.70282 9.06834C2.70282 10.365 2.40812 11.5186 1.81872 12.529C1.22932 13.5394 0.623081 14.1877 0 14.474V16.0401L3.05646 19.1723Z" fill="black"/>
</svg>
