<svg width="271" height="271" viewBox="0 0 271 271" fill="none" xmlns="http://www.w3.org/2000/svg">
<path d="M145.717 0.0273438C173.804 2.15076 200.629 12.988 222.375 31.1562C246.745 51.5169 263.19 79.7909 268.838 111.041C274.486 142.291 268.979 174.533 253.277 202.137C237.576 229.74 212.677 250.951 182.93 262.067C153.182 273.183 120.475 273.498 90.5195 262.956C60.5637 252.414 35.2619 231.685 19.0322 204.389C2.80276 177.093 -3.32428 144.963 1.72168 113.61C4.8425 94.2195 12.1148 75.8874 22.8809 59.7949L10.376 50.2754C5.47638 46.545 6.45245 38.9097 12.1328 36.5312L62.0752 15.6191C67.7557 13.2407 73.881 17.904 73.1006 24.0127L66.2393 77.7197C65.4588 83.8285 58.3581 86.8015 53.458 83.0713L39.1904 72.21C30.4279 85.6205 24.4967 100.813 21.9141 116.86C17.6298 143.481 22.8316 170.761 36.6113 193.937C50.3913 217.113 71.8742 234.713 97.3086 243.664C122.743 252.615 150.513 252.347 175.771 242.909C201.028 233.471 222.168 215.461 235.5 192.024C248.832 168.587 253.508 141.212 248.712 114.679C243.916 88.1453 229.954 64.1391 209.262 46.8516C191.195 31.7576 169 22.623 145.712 20.5479C140.087 20.0464 135.5 15.5147 135.5 9.86719C135.5 4.21967 140.085 -0.398385 145.717 0.0273438Z" fill="url(#paint0_linear_708_7399)"/>
<defs>
<linearGradient id="paint0_linear_708_7399" x1="135.499" y1="0" x2="135.499" y2="270.64" gradientUnits="userSpaceOnUse">
<stop stop-color="#E9AD62"/>
<stop offset="1" stop-color="#CA7C1C"/>
</linearGradient>
</defs>
</svg>
