<svg width="452" height="365" viewBox="0 0 452 365" fill="none" xmlns="http://www.w3.org/2000/svg">
<path d="M293.491 34.9465C291.321 38.3865 289.381 41.6465 287.661 44.6865H298.911C297.021 40.9065 295.081 37.5465 293.491 34.9465Z" fill="#F0E9E0"/>
<path d="M448.981 215.957C423.961 213.407 419.021 206.426 419.021 206.426C392.811 164.046 362.761 154.387 362.761 154.387C405.231 123.447 393.141 98.3465 393.141 98.3465C356.541 120.817 334.801 107.027 334.801 107.027C330.231 66.7665 320.651 41.1565 312.221 25.5965C307.661 17.1865 301.811 10.4765 296.501 4.55651C296.281 4.39651 295.551 3.93652 294.541 4.00652C293.761 4.05652 293.201 4.39651 292.971 4.55651C272.631 22.4265 254.251 72.5565 254.251 72.5565C241.821 68.5565 210.511 72.8165 210.511 72.8165C210.511 72.8165 189.541 11.5765 179.871 8.13653C177.681 7.35653 175.571 7.51653 175.571 7.51653C173.761 7.65653 172.321 8.28652 171.361 8.81652C162.281 12.9165 129.151 105.837 129.151 105.837C102.941 117.407 79.1107 93.9265 72.9807 88.8165C66.8507 83.7065 64.1307 91.5365 64.1307 91.5365C58.0007 130.007 88.9807 161.667 84.9007 159.627C79.2407 159.077 72.0907 159.287 72.0907 159.287C66.4707 159.247 60.8607 160.297 59.5807 160.717C25.8007 171.577 1.84069 157.926 1.84069 157.926C-15.5193 261.416 95.6307 274.697 95.6307 274.697C83.3607 297.827 61.7407 310.427 59.3607 312.467C56.9807 314.507 59.3607 316.036 59.3607 316.036C105.831 339.696 163.191 303.097 163.191 303.097C215.281 335.097 236.891 331.187 236.891 331.187C272.631 325.397 292.551 291.867 292.551 291.867C357.061 310.927 394.171 276.207 395.871 274.337C397.571 272.467 395.531 271.617 395.531 271.617C384.811 269.747 376.641 261.237 376.641 261.237C417.321 258.347 449.151 224.127 450.851 220.217C452.551 216.297 448.981 215.957 448.981 215.957ZM244.551 264.937C244.551 264.937 238.421 260.087 237.661 258.937C236.891 257.787 235.111 258.676 235.111 258.676C235.111 258.676 200.901 281.397 197.321 281.147C193.741 280.897 179.701 249.356 179.701 249.356C175.871 247.826 175.491 250.507 175.491 250.507C182.001 279.107 197.451 288.167 197.451 288.167C206.131 287.527 235.111 267.487 235.111 267.487L243.411 274.127C240.981 292.507 229.241 326.087 229.241 326.087C206.521 320.857 166.431 296.977 166.431 296.977L161.581 296.207C110.011 327.737 70.3007 314.207 70.3007 314.207C91.6207 300.167 102.091 275.187 102.091 275.187C108.301 277.057 122.941 269.907 122.941 269.907H118.941C0.130699 265.817 5.58068 166.247 5.58068 166.247C32.0907 181.397 60.0507 167.657 60.0507 167.657C84.3907 158.517 100.391 169.987 100.391 169.987C71.9607 142.927 71.7907 99.3465 71.7907 99.3465C106.171 129.987 135.281 111.607 135.281 111.607C149.921 57.9865 175.111 16.6265 175.111 16.6265C231.281 111.607 231.221 233.907 231.221 233.907L248.651 231.286C249.271 238.376 244.551 264.937 244.551 264.937ZM268.031 64.4965C268.291 63.7865 274.561 46.8765 289.731 24.2265C290.551 23.0065 291.911 22.2565 293.381 22.2265C294.861 22.2165 296.241 22.8865 297.111 24.0765C297.841 25.0865 315.021 48.9465 315.561 70.1365C315.621 72.6165 313.661 74.6865 311.181 74.7465C311.141 74.7465 311.101 74.7465 311.061 74.7465C308.631 74.7465 306.631 72.8065 306.561 70.3565C306.421 64.9165 304.911 59.1365 302.851 53.6765H282.801C278.471 62.1865 276.501 67.4865 276.471 67.5765C275.611 69.9065 273.031 71.1065 270.701 70.2565C268.371 69.4065 267.171 66.8265 268.031 64.4965ZM278.251 156.617C278.891 155.807 279.531 155.037 280.161 154.287C280.481 151.437 281.471 141.377 281.191 130.377C280.821 116.047 279.211 100.607 278.381 99.1065C278.381 99.1065 294.561 115.007 292.661 142.146C295.611 139.846 298.451 137.967 301.231 136.197C303.941 135.657 308.381 134.156 310.481 135.426C320.241 141.316 323.701 162.747 323.701 162.747C319.101 169.127 312.961 176.396 304.871 183.486L297.171 190.407C296.591 204.947 289.021 209.907 289.021 209.907C290.731 199.457 287.701 196.996 286.901 196.546C276.041 203.046 265.901 206.897 258.341 209.207C258.341 209.207 264.581 173.777 278.251 156.617ZM302.541 234.827C302.611 238.257 299.061 245.767 299.061 245.767C298.681 244.087 294.321 238.557 294.321 238.557L294.421 238.517C281.991 242.817 274.681 239.027 274.681 239.027C280.181 224.947 287.631 218.867 294.861 216.827H294.831C296.811 212.847 295.361 205.397 295.361 205.397C299.341 207.397 301.231 215.957 301.231 215.957H301.201C311.161 215.977 319.351 221.897 319.351 221.897C313.181 227.887 307.511 232.026 302.421 234.856L302.541 234.827ZM365.831 186.166C361.791 190.866 356.871 197.416 348.541 202.166C347.421 212.186 345.281 214.856 345.281 214.856C345.571 212.526 342.081 205.176 342.081 205.176L342.121 205.157C334.831 207.837 325.451 209.127 312.991 207.617C312.991 207.617 315.321 180.967 333.561 172.067H333.541C334.501 167.217 329.771 146.657 329.771 146.657C336.921 151.697 343.101 169.357 343.101 169.377C348.111 168.857 353.941 169.457 360.721 171.617C360.721 171.617 373.741 176.976 365.831 186.166Z" fill="#F0E9E0"/>
<path d="M176.541 79.5665C175.991 79.5665 175.451 79.5365 174.951 79.4865C173.661 79.4165 167.071 78.8165 162.791 74.1165C160.281 71.3565 159.131 67.8465 159.361 63.6765C160.001 52.1065 170.121 48.1165 175.381 47.6165C175.431 47.6165 175.471 47.6065 175.521 47.6065C180.811 47.3265 191.141 50.1965 192.381 63.1465C192.961 69.1265 190.521 72.8765 188.371 74.9765C185.041 78.2265 180.321 79.5665 176.541 79.5665ZM175.961 54.5965C174.661 54.7565 166.791 56.0265 166.341 64.0565C166.221 66.3165 166.751 68.0665 167.961 69.4065C170.121 71.7765 174.131 72.4465 175.361 72.4965C175.451 72.4965 175.551 72.5065 175.641 72.5165C177.891 72.7865 181.401 71.9865 183.471 69.9665C185.021 68.4565 185.651 66.4365 185.401 63.8165C184.551 54.9065 177.591 54.5565 175.961 54.5965Z" fill="#F0E9E0"/>
<path d="M195.191 150.767C195.191 150.767 191.961 116.387 201.831 102.597C201.831 102.597 200.981 100.557 199.451 101.407C199.451 101.407 180.901 119.277 179.021 137.497C179.021 137.497 178.551 138.557 176.191 137.407C176.191 137.407 162.281 126.687 148.491 134.277C148.491 134.277 136.171 141.997 140.131 158.217C140.131 158.217 144.221 177.747 160.431 188.477C160.431 188.477 156.471 207.117 162.221 214.907C162.221 214.907 163.371 216.947 164.011 214.907C164.651 212.867 170.391 197.287 172.821 197.167C175.251 197.037 181.881 205.467 196.051 206.997C196.051 206.997 206.491 209.867 212.361 208.717C212.361 208.717 215.331 208.307 215.871 208.147C218.451 207.387 218.691 207.127 218.691 207.127C219.361 204.547 219.871 187.527 195.191 150.767ZM168.231 190.637C167.641 191.357 166.781 191.727 165.921 191.727C165.251 191.727 164.571 191.497 164.011 191.037C162.731 189.977 162.551 188.087 163.611 186.817C171.751 176.967 184.191 158.797 182.891 152.007C182.581 150.377 183.651 148.807 185.281 148.497C186.911 148.187 188.481 149.257 188.791 150.887C191.021 162.657 170.571 187.807 168.231 190.637Z" fill="#F0E9E0"/>
<path d="M204.851 237.867C202.681 227.527 190.301 220.757 190.301 220.757C188.261 220.757 186.851 206.457 186.851 206.457C184.171 205.947 181.361 217.057 181.361 217.057C162.591 216.417 157.231 226.987 157.231 226.987C162.021 233.847 175.741 237.677 175.741 237.677C174.341 241.247 179.891 248.147 179.891 248.147C179.381 246.997 185.951 239.917 185.951 239.917C193.741 241.957 203.951 240.577 203.951 240.577C205.621 240.347 204.851 237.867 204.851 237.867ZM196.061 232.527C193.131 236.767 187.461 237.497 183.891 237.497C182.311 237.497 181.141 237.357 180.791 237.307C179.421 237.117 178.471 235.857 178.661 234.487C178.851 233.117 180.101 232.157 181.471 232.357C183.671 232.647 189.831 232.747 191.941 229.687C192.731 228.557 194.281 228.267 195.421 229.047C196.551 229.827 196.841 231.387 196.061 232.527Z" fill="#F0E9E0"/>
<path d="M117.061 186.337C117.061 186.337 116.551 177.317 122.681 155.357C122.681 155.357 111.621 161.997 106.171 184.297C106.171 184.297 86.4308 183.277 75.8708 198.767C75.8708 198.767 72.9807 202.507 77.2307 207.957C77.2307 207.957 84.8908 217.317 97.4908 220.557C97.4908 220.557 97.6607 231.957 104.981 236.897C104.981 236.897 104.811 222.087 107.531 222.427C110.251 222.767 136.811 222.797 142.591 215.807C142.591 215.797 137.661 194.677 117.061 186.337ZM109.581 195.687C98.4407 198.897 96.6008 202.357 96.3208 203.707C95.8108 206.217 98.8207 208.757 98.8507 208.777C100.131 209.817 100.331 211.707 99.3007 212.987C98.7107 213.727 97.8407 214.107 96.9607 214.107C96.3107 214.107 95.6507 213.897 95.1007 213.457C94.8607 213.267 89.2107 208.697 90.4207 202.547C91.4907 197.127 97.2107 192.987 107.911 189.917C109.501 189.457 111.161 190.377 111.621 191.967C112.091 193.567 111.171 195.227 109.581 195.687Z" fill="#F0E9E0"/>
<path d="M323.701 206.527C322.541 206.527 321.431 205.847 320.941 204.707C320.771 204.317 316.931 195.147 320.321 188.067C321.951 184.677 324.851 182.377 328.951 181.237C330.541 180.787 332.201 181.727 332.641 183.317C333.091 184.917 332.151 186.567 330.561 187.007C328.171 187.677 326.591 188.867 325.731 190.647C323.881 194.477 325.621 200.397 326.451 202.357C327.091 203.877 326.381 205.637 324.861 206.287C324.491 206.447 324.091 206.527 323.701 206.527Z" fill="#F0E9E0"/>
<path d="M276.551 199.127C275.761 199.127 274.981 198.817 274.391 198.207C273.241 197.017 273.281 195.117 274.471 193.967C274.721 193.727 292.041 176.507 289.631 149.157C289.481 147.507 290.701 146.047 292.351 145.907C293.991 145.767 295.461 146.977 295.601 148.627C298.281 178.977 279.431 197.507 278.631 198.287C278.051 198.847 277.301 199.127 276.551 199.127Z" fill="#F0E9E0"/>
<path d="M297.321 236.126C296.291 236.126 295.321 235.477 294.961 234.447C294.511 233.147 295.191 231.727 296.491 231.267C297.291 230.977 304.161 228.297 302.311 221.637C301.941 220.307 302.721 218.926 304.051 218.556C305.381 218.186 306.761 218.966 307.131 220.296C309.641 229.356 302.351 234.516 298.151 235.986C297.871 236.086 297.601 236.126 297.321 236.126Z" fill="#F0E9E0"/>
<path d="M125.921 87.3565C125.491 87.3565 125.051 87.2865 124.651 87.1565C122.081 86.2965 120.991 85.9365 115.541 51.5565C111.511 59.7165 106.831 72.4965 103.871 81.9265C103.211 84.0365 100.971 85.2065 98.8606 84.5465C96.7506 83.8865 95.5806 81.6365 96.2406 79.5365C98.0906 73.6265 107.731 43.8365 115.461 37.7565C116.581 36.8765 118.081 36.6565 119.401 37.1765C120.721 37.6965 121.671 38.8865 121.881 40.2865C123.441 50.4365 125.241 61.2665 126.711 69.2865C134.551 44.6965 142.311 22.3466 150.851 16.9866C152.721 15.8166 155.191 16.3765 156.361 18.2465C157.541 20.1165 156.971 22.5865 155.101 23.7565C148.221 28.0765 138.291 59.2765 134.051 72.6065C130.141 84.8865 129.821 85.8965 127.801 86.9165C127.221 87.2065 126.571 87.3565 125.921 87.3565Z" fill="#F0E9E0"/>
<path d="M233.001 65.5765C232.731 65.5765 232.451 65.5465 232.181 65.4965C230.481 65.1365 229.201 63.7265 229.021 61.9965C228.171 57.4565 209.581 30.1265 192.101 6.37653C190.791 4.59653 191.171 2.09653 192.951 0.786531C194.731 -0.523469 197.231 -0.143463 198.541 1.63654C207.431 13.7265 225.661 38.9465 233.391 52.8565C243.211 35.9565 262.531 4.07652 270.571 0.366517C272.581 -0.553483 274.951 0.316539 275.881 2.32654C276.801 4.33654 275.931 6.70654 273.921 7.63654C269.161 9.83654 250.771 38.3765 236.471 63.5565C235.761 64.8165 234.421 65.5765 233.001 65.5765Z" fill="#F0E9E0"/>
<path d="M340.801 87.3665C338.691 87.3665 336.931 85.7165 336.811 83.5865C334.861 48.9165 313.291 19.3066 313.081 19.0166C311.771 17.2366 312.151 14.7365 313.921 13.4265C315.701 12.1165 318.201 12.4866 319.511 14.2666C320.461 15.5466 342.711 46.0365 344.801 83.1465C344.921 85.3565 343.241 87.2365 341.031 87.3665C340.961 87.3565 340.881 87.3665 340.801 87.3665Z" fill="#F0E9E0"/>
<path d="M333.581 53.9965C332.121 53.9965 330.721 53.1965 330.011 51.8065C329.011 49.8365 329.791 47.4265 331.761 46.4265C343.601 40.3965 348.341 19.7065 348.391 19.4965C348.871 17.3465 351.011 15.9765 353.161 16.4665C355.321 16.9465 356.671 19.0766 356.201 21.2366C355.981 22.2366 350.601 45.8165 335.391 53.5665C334.811 53.8565 334.191 53.9965 333.581 53.9965Z" fill="#F0E9E0"/>
<path d="M382.161 65.5766C381.401 65.5766 380.631 65.3565 379.951 64.9065C379.601 64.6765 353.781 47.7366 333.921 52.3866C331.771 52.8966 329.621 51.5565 329.111 49.4065C328.611 47.2565 329.941 45.1065 332.091 44.5965C355.381 39.1565 383.211 57.4665 384.381 58.2465C386.221 59.4765 386.711 61.9566 385.491 63.7966C384.731 64.9466 383.461 65.5766 382.161 65.5766Z" fill="#F0E9E0"/>
<path d="M164.581 345.577C162.341 345.577 160.551 345.366 159.901 345.286C158.311 345.206 149.061 344.347 144.681 335.017C143.981 333.517 144.621 331.727 146.121 331.027C147.621 330.317 149.411 330.967 150.111 332.467C153.231 339.117 160.131 339.297 160.201 339.297C160.331 339.297 160.451 339.307 160.581 339.327C163.311 339.707 169.731 339.887 172.101 337.957C172.601 337.547 172.821 337.117 172.871 336.487C172.891 336.147 172.851 335.747 172.371 335.217C170.141 332.737 162.551 331.337 157.871 331.127C157.691 331.117 157.511 331.097 157.341 331.057C156.381 330.847 151.541 329.577 150.461 325.677C150.001 324.027 150.111 321.427 153.251 318.427C160.321 311.667 174.631 317.167 176.231 317.817C177.771 318.437 178.511 320.186 177.891 321.726C177.271 323.266 175.521 324.007 173.991 323.387C170.841 322.127 161.031 319.297 157.401 322.767C156.681 323.457 156.411 323.907 156.321 324.117C156.671 324.457 157.621 324.917 158.461 325.157C160.871 325.287 172.311 326.157 176.851 331.207C178.311 332.837 179.021 334.797 178.881 336.887C178.731 339.187 177.701 341.177 175.901 342.627C172.901 345.047 168.171 345.577 164.581 345.577Z" fill="#F0E9E0"/>
<path d="M208.171 338.407C207.931 338.407 207.691 338.377 207.451 338.317C185.331 332.887 181.181 324.757 180.781 323.847L186.271 321.427L186.231 321.337C186.261 321.397 189.841 327.817 208.881 332.497C210.491 332.887 211.471 334.517 211.081 336.127C210.751 337.487 209.521 338.407 208.171 338.407Z" fill="#F0E9E0"/>
<path d="M185.571 352.697C183.911 352.697 182.571 351.357 182.571 349.697C182.571 344.647 189.621 332.727 191.781 329.187C192.641 327.777 194.491 327.327 195.901 328.197C197.311 329.057 197.761 330.907 196.891 332.317C192.881 338.867 188.561 347.377 188.561 349.697C188.571 351.357 187.231 352.697 185.571 352.697Z" fill="#F0E9E0"/>
<path d="M216.091 360.087C212.831 360.087 209.621 359.117 207.711 356.647C203.811 351.607 206.511 342.637 213.851 336.217C215.101 335.127 216.991 335.247 218.081 336.497C219.171 337.747 219.041 339.637 217.801 340.727C211.921 345.877 211.201 351.357 212.451 352.977C213.521 354.357 217.141 354.357 219.721 353.497C224.391 351.937 227.701 346.617 228.141 339.927C228.251 338.277 229.671 337.017 231.331 337.137C232.981 337.247 234.231 338.677 234.121 340.327C233.511 349.447 228.601 356.847 221.611 359.187C219.941 359.747 218.001 360.087 216.091 360.087Z" fill="#F0E9E0"/>
<path d="M234.591 364.957C234.031 364.957 233.461 364.797 232.961 364.477C231.571 363.577 231.171 361.717 232.081 360.327C239.211 349.337 238.501 335.717 238.501 335.587C238.401 333.937 239.661 332.517 241.321 332.417C242.991 332.317 244.391 333.577 244.491 335.227C244.531 335.857 245.351 350.917 237.121 363.597C236.541 364.477 235.571 364.957 234.591 364.957Z" fill="#F0E9E0"/>
<path d="M235.641 364.976C235.251 364.976 234.861 364.967 234.471 364.957C232.811 364.887 231.531 363.487 231.601 361.837C231.671 360.187 233.041 358.877 234.721 358.967C242.171 359.257 248.311 355.946 251.171 350.056L251.341 349.717C254.401 343.657 253.651 340.767 252.481 339.407C251.141 337.837 246.521 337.026 242.351 338.286C240.761 338.766 239.091 337.867 238.611 336.277C238.131 334.687 239.031 333.016 240.621 332.536C245.971 330.926 253.541 331.416 257.041 335.496C259.391 338.246 261.241 343.406 256.691 352.416L256.561 352.676C252.851 360.336 244.901 364.976 235.641 364.976Z" fill="#F0E9E0"/>
<path d="M264.981 357.897C263.321 357.897 261.981 356.507 261.981 354.847C261.981 354.577 262.001 354.246 262.381 349.796C262.881 343.796 264.051 329.827 263.971 327.807C263.741 326.317 264.671 324.857 266.161 324.457C267.771 324.027 269.411 324.977 269.831 326.577C270.081 327.527 270.131 329.016 268.351 350.286C268.161 352.516 267.991 354.627 267.971 354.937C267.981 356.607 266.631 357.897 264.981 357.897ZM263.981 327.866C264.001 327.986 264.021 328.067 264.041 328.127C264.011 328.047 263.991 327.956 263.981 327.866Z" fill="#F0E9E0"/>
<path d="M285.851 349.217C284.101 349.217 282.551 348.727 281.611 348.247C277.171 345.987 274.121 339.717 273.441 331.467C272.911 324.917 274.041 316.667 278.821 313.157C281.651 311.077 285.531 310.857 288.701 312.597C295.301 316.207 296.301 326.767 296.451 329.927C296.761 336.427 295.391 344.536 290.601 347.786C289.041 348.856 287.371 349.217 285.851 349.217ZM284.331 342.907C284.331 342.907 286.001 343.667 287.231 342.827C289.031 341.607 290.771 336.767 290.461 330.217C290.181 324.287 288.271 319.207 285.821 317.867C284.891 317.357 283.461 317.197 282.371 317.997C280.181 319.607 278.941 325.067 279.421 330.977C279.891 336.777 281.911 341.677 284.331 342.907Z" fill="#F0E9E0"/>
<path d="M301.611 339.487C300.241 339.487 299.011 338.547 298.691 337.157C298.321 335.547 299.321 333.937 300.941 333.557C304.041 332.837 313.921 324.707 317.721 319.197C317.931 318.897 318.091 318.637 318.211 318.427C317.981 318.417 317.741 318.417 317.511 318.427C312.111 320.837 303.001 324.157 299.101 321.187C297.881 320.257 297.141 318.957 296.991 317.437C296.651 314.127 299.301 310.796 299.951 310.036C303.581 305.496 310.811 300.496 311.111 300.286C312.481 299.346 314.341 299.697 315.281 301.057C316.221 302.417 315.871 304.286 314.511 305.226C314.441 305.276 307.661 309.967 304.601 313.817C304.571 313.847 304.551 313.886 304.521 313.916C303.871 314.676 303.241 315.746 303.031 316.416C305.011 316.596 310.611 314.977 315.501 312.757C315.771 312.637 316.061 312.557 316.351 312.517C317.271 312.397 321.931 311.957 323.861 315.097C325.111 317.137 324.701 319.667 322.661 322.617C318.501 328.637 307.461 338.217 302.291 339.407C302.061 339.467 301.841 339.487 301.611 339.487Z" fill="#F0E9E0"/>
</svg>
