<svg width="291" height="88" viewBox="0 0 291 88" fill="none" xmlns="http://www.w3.org/2000/svg">
<path d="M197.434 34.9465C195.264 38.3865 193.324 41.6465 191.604 44.6865H202.854C200.964 40.9065 199.024 37.5465 197.434 34.9465Z" fill="#3A1943"/>
<path d="M198.484 4.00616C199.494 3.9363 200.224 4.39696 200.444 4.55695C205.754 10.4769 211.604 17.1872 216.164 25.597C223.182 38.5496 230.995 58.4663 236.053 88.0003H110.667C102.873 64.019 92.5978 39.5283 79.0538 16.6263C79.0538 16.6263 60.9722 46.3178 46.5441 88.0003H39.6202C49.7477 60.8001 68.7636 11.7713 75.3038 8.81671C76.2638 8.28675 77.704 7.65697 79.5138 7.51691C79.5138 7.51691 81.6246 7.35605 83.8146 8.13605C93.4847 11.5769 114.454 72.8167 114.454 72.8167C114.483 72.8128 145.77 68.5588 158.194 72.5569C158.194 72.5569 176.574 22.4271 196.914 4.55695C197.144 4.39695 197.704 4.05616 198.484 4.00616ZM197.324 22.2269C195.854 22.2569 194.494 23.0069 193.674 24.2269C178.504 46.8767 172.234 63.7864 171.974 64.4964C171.114 66.8264 172.315 69.4062 174.645 70.2562C176.975 71.106 179.554 69.9064 180.414 67.5765C180.445 67.4841 182.415 62.1842 186.744 53.6761H206.794C208.854 59.1361 210.364 64.9168 210.504 70.3568C210.574 72.8066 212.574 74.7463 215.004 74.7464H215.124C217.604 74.6864 219.564 72.6161 219.504 70.136C218.964 48.9462 201.784 25.0865 201.054 24.0765C200.184 22.8866 198.804 22.2169 197.324 22.2269Z" fill="#3A1943"/>
<path d="M80.4841 79.5665C79.9341 79.5665 79.3942 79.5365 78.8942 79.4865C77.6042 79.4165 71.0141 78.8165 66.7341 74.1165C64.2241 71.3565 63.0742 67.8465 63.3042 63.6765C63.9442 52.1065 74.0642 48.1165 79.3242 47.6165C79.3742 47.6165 79.4141 47.6065 79.4641 47.6065C84.7541 47.3265 95.0842 50.1965 96.3242 63.1465C96.9042 69.1265 94.4642 72.8765 92.3142 74.9765C88.9842 78.2265 84.2641 79.5665 80.4841 79.5665ZM79.9041 54.5965C78.6041 54.7565 70.7341 56.0265 70.2841 64.0565C70.1641 66.3165 70.6941 68.0665 71.9041 69.4065C74.0641 71.7765 78.0742 72.4465 79.3042 72.4965C79.3942 72.4965 79.4942 72.5065 79.5842 72.5165C81.8342 72.7865 85.3441 71.9865 87.4141 69.9665C88.9641 68.4565 89.5941 66.4365 89.3441 63.8165C88.4941 54.9065 81.5341 54.5565 79.9041 54.5965Z" fill="#3A1943"/>
<path d="M29.8641 87.3565C29.4341 87.3565 28.9941 87.2865 28.5941 87.1565C26.0241 86.2965 24.9341 85.9365 19.4841 51.5565C15.4541 59.7165 10.7741 72.4965 7.81413 81.9265C7.15413 84.0365 4.91412 85.2065 2.80412 84.5465C0.694116 83.8865 -0.475879 81.6365 0.184121 79.5365C2.03412 73.6265 11.6741 43.8365 19.4041 37.7565C20.5241 36.8765 22.0241 36.6565 23.3441 37.1765C24.6641 37.6965 25.6141 38.8865 25.8241 40.2865C27.3841 50.4365 29.1841 61.2665 30.6541 69.2865C38.4941 44.6965 46.2541 22.3465 54.7941 16.9865C56.6641 15.8165 59.1341 16.3765 60.3041 18.2465C61.4841 20.1165 60.9141 22.5865 59.0441 23.7565C52.1641 28.0765 42.2341 59.2765 37.9941 72.6065C34.0841 84.8865 33.7641 85.8965 31.7441 86.9165C31.1641 87.2065 30.5141 87.3565 29.8641 87.3565Z" fill="#3A1943"/>
<path d="M136.944 65.5765C136.674 65.5765 136.394 65.5465 136.124 65.4965C134.424 65.1365 133.144 63.7265 132.964 61.9965C132.114 57.4565 113.524 30.1265 96.0441 6.37653C94.7341 4.59653 95.1142 2.09653 96.8942 0.786531C98.6742 -0.523469 101.174 -0.143463 102.484 1.63654C111.374 13.7265 129.604 38.9465 137.334 52.8565C147.154 35.9565 166.474 4.07652 174.514 0.366517C176.524 -0.553483 178.894 0.316539 179.824 2.32654C180.744 4.33654 179.874 6.70654 177.864 7.63654C173.104 9.83654 154.714 38.3765 140.414 63.5565C139.704 64.8165 138.364 65.5765 136.944 65.5765Z" fill="#3A1943"/>
<path d="M244.744 87.3665C242.634 87.3665 240.874 85.7165 240.754 83.5865C238.804 48.9165 217.234 19.3066 217.024 19.0166C215.714 17.2366 216.094 14.7365 217.864 13.4265C219.644 12.1165 222.144 12.4866 223.454 14.2666C224.404 15.5466 246.654 46.0365 248.744 83.1465C248.864 85.3565 247.184 87.2365 244.974 87.3665C244.904 87.3565 244.824 87.3665 244.744 87.3665Z" fill="#3A1943"/>
<path d="M237.524 53.9965C236.064 53.9965 234.664 53.1965 233.954 51.8065C232.954 49.8365 233.734 47.4265 235.704 46.4265C247.544 40.3965 252.284 19.7065 252.334 19.4965C252.814 17.3465 254.954 15.9765 257.104 16.4665C259.264 16.9465 260.614 19.0765 260.144 21.2365C259.924 22.2365 254.544 45.8165 239.334 53.5665C238.754 53.8565 238.134 53.9965 237.524 53.9965Z" fill="#3A1943"/>
<path d="M286.104 65.5766C285.344 65.5766 284.574 65.3565 283.894 64.9065C283.544 64.6765 257.724 47.7366 237.864 52.3866C235.714 52.8966 233.564 51.5565 233.054 49.4065C232.554 47.2565 233.884 45.1065 236.034 44.5965C259.324 39.1565 287.154 57.4665 288.324 58.2465C290.164 59.4765 290.654 61.9566 289.434 63.7966C288.674 64.9466 287.404 65.5766 286.104 65.5766Z" fill="#3A1943"/>
</svg>
