<svg width="23" height="20" viewBox="0 0 23 20" fill="none" xmlns="http://www.w3.org/2000/svg">
<path d="M4.92376 1.34625C7.52797 3.30132 10.3291 7.26541 11.3575 9.39276C12.386 7.26556 15.187 3.30128 17.7913 1.34625C19.6704 -0.0644596 22.7149 -1.15598 22.7149 2.3173C22.7149 3.01097 22.3172 8.14443 22.084 8.97783C21.2732 11.8753 18.3186 12.6143 15.6905 12.167C20.2844 12.9489 21.453 15.5387 18.9292 18.1285C14.136 23.047 12.04 16.8944 11.5027 15.3179C11.4042 15.0289 11.3581 14.8937 11.3575 15.0086C11.3568 14.8937 11.3107 15.0289 11.2123 15.3179C10.6752 16.8944 8.57918 23.0472 3.78569 18.1285C1.26185 15.5387 2.43044 12.9487 7.02439 12.167C4.39621 12.6143 1.44164 11.8753 0.630962 8.97783C0.397697 8.14435 0 3.01089 0 2.3173C0 -1.15598 3.04464 -0.0644596 4.92363 1.34625H4.92376Z" fill="#F0E9E0"/>
</svg>
