<svg width="24" height="21" viewBox="0 0 24 21" fill="none" xmlns="http://www.w3.org/2000/svg">
<path d="M5.20232 1.41356C7.95386 3.46639 10.9135 7.62868 12.0001 9.8624C13.0868 7.62884 16.0462 3.46635 18.7978 1.41356C20.7832 -0.0676825 24 -1.21378 24 2.43317C24 3.16151 23.5798 8.55165 23.3333 9.42672C22.4767 12.4691 19.355 13.245 16.5782 12.7754C21.432 13.5963 22.6667 16.3156 20.0001 19.0349C14.9357 24.1994 12.7211 17.7391 12.1534 16.0838C12.0494 15.7803 12.0007 15.6383 12 15.7591C11.9993 15.6383 11.9506 15.7803 11.8466 16.0838C11.2791 17.7391 9.06454 24.1995 3.99987 19.0349C1.33323 16.3156 2.56794 13.5962 7.42179 12.7754C4.64492 13.245 1.5232 12.4691 0.666658 9.42672C0.420196 8.55157 0 3.16143 0 2.43317C0 -1.21378 3.21689 -0.0676825 5.20218 1.41356H5.20232Z" fill="#F0E9E0"/>
</svg>
