<svg width="24" height="19" viewBox="0 0 24 19" fill="none" xmlns="http://www.w3.org/2000/svg">
<path d="M2.4 19C1.74 19 1.175 18.7674 0.705 18.3023C0.235 17.8372 0 17.2781 0 16.625V2.375C0 1.72187 0.235 1.16276 0.705 0.697656C1.175 0.232552 1.74 0 2.4 0H21.6C22.26 0 22.825 0.232552 23.295 0.697656C23.765 1.16276 24 1.72187 24 2.375V16.625C24 17.2781 23.765 17.8372 23.295 18.3023C22.825 18.7674 22.26 19 21.6 19H2.4ZM12 10.6875L21.6 4.75V2.375L12 8.3125L2.4 2.375V4.75L12 10.6875Z" fill="#F0E9E0"/>
</svg>
