<svg width="20" height="20" viewBox="0 0 20 20" fill="none" xmlns="http://www.w3.org/2000/svg">
<path d="M10 1.80184C12.6701 1.80184 12.9864 1.81204 14.041 1.86015C15.016 1.90465 15.5454 2.06752 15.8978 2.20447C16.3322 2.36477 16.7251 2.62039 17.0476 2.95252C17.3798 3.27508 17.6354 3.66798 17.7957 4.10233C17.9326 4.4547 18.0956 4.98419 18.14 5.95918C18.1881 7.01368 18.1983 7.32993 18.1983 10.0001C18.1983 12.6703 18.1881 12.9865 18.14 14.0411C18.0955 15.0161 17.9326 15.5455 17.7957 15.898C17.6293 16.3292 17.3745 16.7209 17.0477 17.0478C16.7208 17.3746 16.3291 17.6294 15.8978 17.7958C15.5455 17.9328 15.016 18.0957 14.041 18.1401C12.9867 18.1882 12.6704 18.1984 10 18.1984C7.32961 18.1984 7.01348 18.1882 5.95906 18.1401C4.98407 18.0956 4.45462 17.9327 4.10221 17.7958C3.66786 17.6355 3.27496 17.3799 2.9524 17.0478C2.62027 16.7252 2.36466 16.3323 2.20435 15.898C2.0674 15.5456 1.90449 15.0161 1.86003 14.0411C1.81192 12.9866 1.80172 12.6703 1.80172 10.0001C1.80172 7.32993 1.81192 7.01376 1.86003 5.95918C1.90453 4.98419 2.0674 4.45474 2.20435 4.10233C2.36467 3.66796 2.62032 3.27505 2.95248 2.95248C3.27504 2.62035 3.66794 2.36474 4.10229 2.20443C4.45466 2.06748 4.98415 1.90457 5.95914 1.86011C7.01364 1.812 7.32989 1.8018 10.0001 1.8018M10.0001 0C7.28424 0 6.94358 0.0115116 5.87713 0.0601777C4.81271 0.108764 4.08581 0.277786 3.44974 0.525007C2.78249 0.776103 2.17804 1.16973 1.67855 1.67843C1.16973 2.17789 0.775998 2.78234 0.524808 3.44962C0.277786 4.08573 0.108764 4.81263 0.0603762 5.87705C0.0115116 6.9435 0 7.28416 0 10C0 12.7159 0.0115116 13.0565 0.0603762 14.123C0.108963 15.1874 0.277984 15.9143 0.525205 16.5504C0.776303 17.2176 1.16993 17.8221 1.67862 18.3216C2.17812 18.8303 2.78257 19.2239 3.44982 19.475C4.08593 19.7222 4.81283 19.8912 5.87721 19.9398C6.94382 19.9885 7.28436 20 10.0002 20C12.716 20 13.0567 19.9885 14.1231 19.9398C15.1876 19.8912 15.9145 19.7222 16.5505 19.475C17.2148 19.2181 17.8181 18.8252 18.3217 18.3216C18.8254 17.818 19.2182 17.2147 19.4752 16.5504C19.7224 15.9143 19.8914 15.1874 19.94 14.123C19.9886 13.0564 20.0002 12.7158 20.0002 10C20.0002 7.2842 19.9886 6.9435 19.94 5.87705C19.8914 4.81263 19.7224 4.08573 19.4752 3.44966C19.2241 2.78241 18.8304 2.17796 18.3217 1.67847C17.8222 1.16966 17.2177 0.775958 16.5504 0.524808C15.9143 0.277786 15.1874 0.108764 14.123 0.0603762C13.0565 0.0115116 12.7159 0 10 0H10.0001Z" fill="#F0E9E0"/>
<path d="M10 4.86487C8.98438 4.86487 7.99155 5.16604 7.14708 5.7303C6.30261 6.29456 5.64443 7.09656 5.25576 8.03488C4.86709 8.97321 4.7654 10.0057 4.96354 11.0018C5.16168 11.998 5.65076 12.913 6.36892 13.6311C7.08708 14.3493 8.00208 14.8384 8.9982 15.0365C9.99432 15.2346 11.0268 15.1329 11.9652 14.7443C12.9035 14.3556 13.7055 13.6974 14.2697 12.853C14.834 12.0085 15.1352 11.0157 15.1352 10C15.1352 8.63809 14.5941 7.33195 13.6311 6.36892C12.6681 5.40589 11.3619 4.86487 10 4.86487ZM10 13.3333C9.34075 13.3333 8.6963 13.1378 8.14814 12.7715C7.59999 12.4053 7.17275 11.8847 6.92047 11.2756C6.66818 10.6665 6.60218 9.99629 6.7308 9.3497C6.85942 8.7031 7.17689 8.10917 7.64307 7.643C8.10924 7.17683 8.70318 6.85937 9.34978 6.73075C9.99638 6.60214 10.6666 6.66815 11.2757 6.92044C11.8848 7.17274 12.4053 7.59997 12.7716 8.14813C13.1379 8.69629 13.3334 9.34075 13.3334 10C13.3334 10.8841 12.9822 11.7319 12.357 12.357C11.7319 12.9821 10.8841 13.3333 10 13.3333Z" fill="#F0E9E0"/>
<path d="M15.3381 5.86197C16.0008 5.86197 16.538 5.32472 16.538 4.66199C16.538 3.99925 16.0008 3.462 15.3381 3.462C14.6753 3.462 14.1381 3.99925 14.1381 4.66199C14.1381 5.32472 14.6753 5.86197 15.3381 5.86197Z" fill="#F0E9E0"/>
</svg>
