<svg width="24" height="21" viewBox="0 0 24 21" fill="none" xmlns="http://www.w3.org/2000/svg">
<path d="M3.12916 0.129843C2.08234 0.734267 0.0197553 3.0387 0 3.64302V4.6435C0 5.91167 1.21897 7.02615 2.32548 7.02615C3.65408 7.02615 4.76125 5.95516 4.76147 4.68414C4.76147 5.95505 5.83064 7.02615 7.15957 7.02615C8.48838 7.02615 9.52326 5.95516 9.52326 4.68414C9.52326 5.95505 10.6597 7.02615 11.9883 7.02615H12.0122C13.3408 7.02615 14.4784 5.95516 14.4784 4.68414C14.4784 5.95505 15.5128 7.02615 16.8414 7.02615C18.17 7.02615 19.2392 5.95516 19.2392 4.68414C19.2392 5.95505 20.3464 7.02615 21.6749 7.02615C22.781 7.02615 24 5.91177 24 4.6435V3.64302C23.9794 3.0387 21.917 0.734267 20.8706 0.129843C17.6175 0.0186905 15.3608 -0.000415473 11.9992 6.75802e-06C8.63872 0.000217874 4.05483 0.0512023 3.12894 0.129843H3.12916ZM9.50654 6.4289C9.37946 6.64426 9.22207 6.84131 9.03893 7.01433C8.51907 7.51016 7.81978 7.78764 7.09162 7.78701C6.33343 7.78701 5.64188 7.49145 5.1404 7.01411C4.95913 6.841 4.82127 6.65585 4.69428 6.4403V6.44072C4.56836 6.6567 4.39143 6.84163 4.21016 7.01496C3.68896 7.51072 2.98867 7.78801 2.2596 7.78733C2.16842 7.78733 2.07398 7.76305 1.99692 7.73771C1.89054 8.81968 1.84495 9.85309 1.82932 10.6078V10.6121C1.82715 10.9952 1.82552 11.3098 1.82346 11.7468C1.84408 14.0174 1.59226 19.1042 2.85247 20.354C4.80521 20.7973 8.39851 20.9989 12.004 21H12.0043C15.6095 20.9989 19.203 20.7973 21.1558 20.355C22.416 19.105 22.1642 14.0182 22.1848 11.7484C22.1829 11.3114 22.1811 10.9966 22.179 10.6136V10.6094C22.1628 9.85552 22.1177 8.82179 22.0108 7.74004C21.9337 7.76537 21.8385 7.78996 21.747 7.78996C21.0178 7.79064 20.3174 7.5134 19.7959 7.0177C19.6141 6.84406 19.4377 6.65912 19.3115 6.44347L19.3109 6.44273C19.1843 6.65807 19.0463 6.84353 18.8645 7.01654C18.363 7.49366 17.6716 7.78923 16.9136 7.78923C16.1556 7.78923 15.4678 7.49366 14.9663 7.01654C14.7832 6.84339 14.6258 6.64637 14.4985 6.43112C14.3729 6.64626 14.217 6.8433 14.0354 7.01654C13.5139 7.51259 12.8132 7.79 12.0837 7.78923C12.0573 7.78923 12.0306 7.78817 12.0045 7.78711H12.0036C11.9773 7.78817 11.9509 7.78923 11.9244 7.78923C11.1661 7.78923 10.4746 7.49366 9.97296 7.01654C9.79119 6.84342 9.63518 6.64644 9.50947 6.43133L9.50654 6.4289ZM7.50257 8.94888L7.50235 8.94973H7.50453C8.29799 8.95142 9.00354 8.94973 9.87625 9.87684C10.5644 9.80686 11.2819 9.77171 12.0016 9.77287H12.0027C12.7223 9.77181 13.4398 9.8077 14.128 9.87737C15.0018 8.95057 15.7062 8.95268 16.4997 8.95057H16.5019V8.94952C16.8774 8.94952 18.3765 8.94952 19.4218 11.8038L20.545 15.72C21.377 18.6334 20.2787 18.7052 18.9089 18.7073C16.8769 18.6344 15.7524 17.1989 15.7524 15.7643C14.6278 15.9438 13.3155 16.0335 12.0037 16.0335H12.0032C10.6913 16.0335 9.37944 15.9438 8.25512 15.7643C8.25512 17.1989 7.13058 18.6334 5.09883 18.7073C3.72898 18.7052 2.6305 18.6334 3.46272 15.7211L4.58508 11.8049C5.63037 8.95057 7.13048 8.95057 7.50496 8.95057L7.50257 8.94888ZM12.0007 11.192V11.1927C11.9989 11.1945 9.86214 13.1029 9.4781 13.7816L10.8773 13.7272V14.9136C10.8773 14.9693 11.4389 14.9467 12.0007 14.9215H12.0015C12.5634 14.9468 13.1249 14.9693 13.1249 14.9137V13.7273L14.5241 13.7815C14.14 13.1028 12.0015 11.1927 12.0015 11.1927V11.1921L12.0012 11.1923L12.0007 11.192Z" fill="#F0E9E0"/>
</svg>
