<svg width="64" height="64" viewBox="0 0 64 64" fill="none" xmlns="http://www.w3.org/2000/svg">
<mask id="mask0_221_18004" style="mask-type:alpha" maskUnits="userSpaceOnUse" x="0" y="0" width="64" height="64">
<circle cx="32" cy="32" r="32" fill="#D9D9D9"/>
</mask>
<g mask="url(#mask0_221_18004)">
<rect x="-22.5" y="-1.5" width="109.002" height="66.3895" fill="#19437C" stroke="#F0E9E0" stroke-width="5"/>
<mask id="path-3-inside-1_221_18004" fill="white">
<path d="M89.002 5.31445L46.9785 31.5547L89.002 54.459V67.3896H81.4062L32.3818 40.6689L-10.4072 67.3896H-25V58.832L17.2734 32.4346L-25 9.39355V-4H-18.2559L31.8691 23.3203L75.6221 -4H89.002V5.31445Z"/>
</mask>
<path d="M89.002 5.31445L46.9785 31.5547L89.002 54.459V67.3896H81.4062L32.3818 40.6689L-10.4072 67.3896H-25V58.832L17.2734 32.4346L-25 9.39355V-4H-18.2559L31.8691 23.3203L75.6221 -4H89.002V5.31445Z" fill="#801A1A"/>
<path d="M89.002 5.31445L91.6502 9.55555L94.002 8.08706V5.31445H89.002ZM46.9785 31.5547L44.3303 27.3136L37.0687 31.8479L44.5857 35.9449L46.9785 31.5547ZM89.002 54.459H94.002V51.4897L91.3948 50.0687L89.002 54.459ZM89.002 67.3896V72.3896H94.002V67.3896H89.002ZM81.4062 67.3896L79.0134 71.7799L80.1321 72.3896H81.4062V67.3896ZM32.3818 40.6689L34.7747 36.2787L32.2105 34.8811L29.7334 36.428L32.3818 40.6689ZM-10.4072 67.3896V72.3896H-8.97427L-7.75883 71.6306L-10.4072 67.3896ZM-25 67.3896H-30V72.3896H-25V67.3896ZM-25 58.832L-27.6483 54.591L-30 56.0595V58.832H-25ZM17.2734 32.4346L19.9217 36.6756L27.1831 32.1413L19.6663 28.0443L17.2734 32.4346ZM-25 9.39355H-30V12.3628L-27.3929 13.7838L-25 9.39355ZM-25 -4V-9H-30V-4H-25ZM-18.2559 -4L-15.863 -8.39024L-16.9817 -9H-18.2559V-4ZM31.8691 23.3203L29.4763 27.7105L32.0404 29.1081L34.5174 27.5614L31.8691 23.3203ZM75.6221 -4V-9H74.1892L72.9738 -8.24109L75.6221 -4ZM89.002 -4H94.002V-9H89.002V-4ZM89.002 5.31445L86.3537 1.07335L44.3303 27.3136L46.9785 31.5547L49.6267 35.7958L91.6502 9.55555L89.002 5.31445ZM46.9785 31.5547L44.5857 35.9449L86.6091 58.8492L89.002 54.459L91.3948 50.0687L49.3714 27.1644L46.9785 31.5547ZM89.002 54.459H84.002V67.3896H89.002H94.002V54.459H89.002ZM89.002 67.3896V62.3896H81.4062V67.3896V72.3896H89.002V67.3896ZM81.4062 67.3896L83.7991 62.9994L34.7747 36.2787L32.3818 40.6689L29.9889 45.0592L79.0134 71.7799L81.4062 67.3896ZM32.3818 40.6689L29.7334 36.428L-13.0556 63.1487L-10.4072 67.3896L-7.75883 71.6306L35.0302 44.9099L32.3818 40.6689ZM-10.4072 67.3896V62.3896H-25V67.3896V72.3896H-10.4072V67.3896ZM-25 67.3896H-20V58.832H-25H-30V67.3896H-25ZM-25 58.832L-22.3517 63.0731L19.9217 36.6756L17.2734 32.4346L14.6251 28.1935L-27.6483 54.591L-25 58.832ZM17.2734 32.4346L19.6663 28.0443L-22.6071 5.00333L-25 9.39355L-27.3929 13.7838L14.8806 36.8248L17.2734 32.4346ZM-25 9.39355H-20V-4H-25H-30V9.39355H-25ZM-25 -4V1H-18.2559V-4V-9H-25V-4ZM-18.2559 -4L-20.6487 0.390236L29.4763 27.7105L31.8691 23.3203L34.262 18.9301L-15.863 -8.39024L-18.2559 -4ZM31.8691 23.3203L34.5174 27.5614L78.2703 0.241092L75.6221 -4L72.9738 -8.24109L29.2209 19.0792L31.8691 23.3203ZM75.6221 -4V1H89.002V-4V-9H75.6221V-4ZM89.002 -4H84.002V5.31445H89.002H94.002V-4H89.002Z" fill="#F0E9E0" mask="url(#path-3-inside-1_221_18004)"/>
<mask id="path-5-outside-2_221_18004" maskUnits="userSpaceOnUse" x="-27.2329" y="-6.23245" width="118" height="76" fill="black">
<rect fill="white" x="-27.2329" y="-6.23245" width="118" height="76"/>
<path d="M36.4282 24.7773H85.6812V38.6123H36.4282V64.623H26.4673V38.6123H-22.2329V24.7773H26.4673V-1.23245H36.4282V24.7773Z"/>
</mask>
<path d="M36.4282 24.7773H85.6812V38.6123H36.4282V64.623H26.4673V38.6123H-22.2329V24.7773H26.4673V-1.23245H36.4282V24.7773Z" fill="#801A1A"/>
<path d="M36.4282 24.7773H31.4282V29.7773H36.4282V24.7773ZM85.6812 24.7773H90.6812V19.7773H85.6812V24.7773ZM85.6812 38.6123V43.6123H90.6812V38.6123H85.6812ZM36.4282 38.6123V33.6123H31.4282V38.6123H36.4282ZM36.4282 64.623V69.623H41.4282V64.623H36.4282ZM26.4673 64.623H21.4673V69.623H26.4673V64.623ZM26.4673 38.6123H31.4673V33.6123H26.4673V38.6123ZM-22.2329 38.6123H-27.2329V43.6123H-22.2329V38.6123ZM-22.2329 24.7773V19.7773H-27.2329V24.7773H-22.2329ZM26.4673 24.7773V29.7773H31.4673V24.7773H26.4673ZM26.4673 -1.23245V-6.23245H21.4673V-1.23245H26.4673ZM36.4282 -1.23245H41.4282V-6.23245H36.4282V-1.23245ZM36.4282 24.7773V29.7773H85.6812V24.7773V19.7773H36.4282V24.7773ZM85.6812 24.7773H80.6812V38.6123H85.6812H90.6812V24.7773H85.6812ZM85.6812 38.6123V33.6123H36.4282V38.6123V43.6123H85.6812V38.6123ZM36.4282 38.6123H31.4282V64.623H36.4282H41.4282V38.6123H36.4282ZM36.4282 64.623V59.623H26.4673V64.623V69.623H36.4282V64.623ZM26.4673 64.623H31.4673V38.6123H26.4673H21.4673V64.623H26.4673ZM26.4673 38.6123V33.6123H-22.2329V38.6123V43.6123H26.4673V38.6123ZM-22.2329 38.6123H-17.2329V24.7773H-22.2329H-27.2329V38.6123H-22.2329ZM-22.2329 24.7773V29.7773H26.4673V24.7773V19.7773H-22.2329V24.7773ZM26.4673 24.7773H31.4673V-1.23245H26.4673H21.4673V24.7773H26.4673ZM26.4673 -1.23245V3.76755H36.4282V-1.23245V-6.23245H26.4673V-1.23245ZM36.4282 -1.23245H31.4282V24.7773H36.4282H41.4282V-1.23245H36.4282Z" fill="#F0E9E0" mask="url(#path-5-outside-2_221_18004)"/>
</g>
</svg>
